<?xml version="1.0" standalone="no"?><svg xmlns:xlink="http://www.w3.org/1999/xlink" xmlns="http://www.w3.org/2000/svg" viewBox="0 0 1000 1400.010536297545" preserveAspectRatio="xMaxYMax slice"><g transform="scale(3.292592982825835)"><rect x="0" y="0" width="303.7142857142857" height="425.20000000000005" fill="#ffffff" data-darkreader-inline-fill="" style="--darkreader-inline-fill: #181a1b;"/><rect x="0" y="0" width="60.74285714285715" height="60.74285714285715" fill="#ffffff" data-darkreader-inline-fill="" style="--darkreader-inline-fill: #181a1b;"/><rect x="0" y="0" width="30.37" height="30.37" fill="#6beaea" data-darkreader-inline-fill="" style="--darkreader-inline-fill: #6beaea;"/><path d="M 0 30.37 A 30.37 30.37 0 0 0 30.37 0 L 0 0L0 30.37" fill="#ffd4de" data-darkreader-inline-fill="" style="--darkreader-inline-fill: #ffaec1;"/><rect x="30.37" y="0" width="30.37" height="30.37" fill="#4967e7" data-darkreader-inline-fill="" style="--darkreader-inline-fill: #5394e8;"/><path d="M 30.37 0 A 30.37 30.37 0 0 0 60.74 30.37 L 60.74 0L30.37 0" fill="#2f52e4" data-darkreader-inline-fill="" style="--darkreader-inline-fill: #4089e6;"/><rect x="0" y="30.37" width="30.37" height="30.37" fill="#ff7293" data-darkreader-inline-fill="" style="--darkreader-inline-fill: #ff698c;"/><path d="M 0 30.37 A 30.37 30.37 0 0 1 30.37 60.74 L 0 60.74L0 30.37" fill="#3ce3e3" data-darkreader-inline-fill="" style="--darkreader-inline-fill: #4ae5e5;"/><rect x="30.37" y="30.37" width="30.37" height="30.37" fill="#aebbf4" data-darkreader-inline-fill="" style="--darkreader-inline-fill: #99c0f1;"/><path d="M 30.37 60.74 A 30.37 30.37 0 0 1  60.74 30.37 L 60.74 60.74L30.37 60.74" fill="#bac6f6" data-darkreader-inline-fill="" style="--darkreader-inline-fill: #a2c5f3;"/><rect x="60.74" y="0" width="60.74" height="60.74" fill="#ff5981" data-darkreader-inline-fill="" style="--darkreader-inline-fill: #970024;"/><polygon points="121.48,0 121.48,60.74 60.74,60.74" fill="#ffb1c3" data-darkreader-inline-fill="" style="--darkreader-inline-fill: #620017;"/><rect x="121.49" y="0" width="60.74" height="60.74" fill="#d4cdf8" data-darkreader-inline-fill="" style="--darkreader-inline-fill: #282b2d;"/><polygon points="121.49,0 182.23,0 182.23,60.74" fill="#4fe6e6" data-darkreader-inline-fill="" style="--darkreader-inline-fill: #159696;"/><rect x="182.22857142857146" y="0" width="60.74285714285715" height="60.74285714285715" fill="#ffffff" data-darkreader-inline-fill="" style="--darkreader-inline-fill: #181a1b;"/><rect x="182.23" y="0" width="30.37" height="30.37" fill="#52e6e6" data-darkreader-inline-fill="" style="--darkreader-inline-fill: #59e7e7;"/><path d="M 182.23 0 A 30.37 30.37 0 0 0 212.6 30.37 L 212.6 0L182.23 0" fill="#6548e5" data-darkreader-inline-fill="" style="--darkreader-inline-fill: #6e52e6;"/><rect x="212.6" y="0" width="30.37" height="30.37" fill="#5839e3" data-darkreader-inline-fill="" style="--darkreader-inline-fill: #6448e5;"/><path d="M 212.6 30.37 A 30.37 30.37 0 0 0 242.97 0 L 212.6 0L212.6 30.37" fill="#f6f4fd" data-darkreader-inline-fill="" style="--darkreader-inline-fill: #d5ccf6;"/><rect x="182.23" y="30.37" width="30.37" height="30.37" fill="#8973eb" data-darkreader-inline-fill="" style="--darkreader-inline-fill: #8770eb;"/><path d="M 182.23 60.74 A 30.37 30.37 0 0 1  212.6 30.37 L 212.6 60.74L182.23 60.74" fill="#e9e5fb" data-darkreader-inline-fill="" style="--darkreader-inline-fill: #cac1f5;"/><rect x="212.6" y="30.37" width="30.37" height="30.37" fill="#aef3f3" data-darkreader-inline-fill="" style="--darkreader-inline-fill: #9af0f0;"/><path d="M 212.6 30.37 A 30.37 30.37 0 0 1 242.97 60.74 L 212.6 60.74L212.6 30.37" fill="#ff4572" data-darkreader-inline-fill="" style="--darkreader-inline-fill: #ff4a76;"/><rect x="242.97" y="0" width="60.74" height="60.74" fill="#ff567e" data-darkreader-inline-fill="" style="--darkreader-inline-fill: #980024;"/><rect x="242.97" y="0" width="60.74" height="60.74" fill="#ebfcfc" data-darkreader-inline-fill="" style="--darkreader-inline-fill: #083838;"/><rect x="0" y="60.74" width="60.74" height="60.74" fill="#94a6f1" data-darkreader-inline-fill="" style="--darkreader-inline-fill: #0e216d;"/><path d="M 0 121.48 A 60.74 60.74 0 0 1  60.74 60.74 L 60.74 121.48L0 121.48" fill="#ffdee6" data-darkreader-inline-fill="" style="--darkreader-inline-fill: #470011;"/><rect x="60.74285714285715" y="60.74285714285715" width="60.74285714285715" height="60.74285714285715" fill="#ffffff" data-darkreader-inline-fill="" style="--darkreader-inline-fill: #181a1b;"/><rect x="60.74" y="60.74" width="30.37" height="30.37" fill="#b1a2f2" data-darkreader-inline-fill="" style="--darkreader-inline-fill: #a391f0;"/><path d="M 60.74 60.74 A 30.37 30.37 0 0 0 91.11 91.11 L 91.11 60.74L60.74 60.74" fill="#7d64e9" data-darkreader-inline-fill="" style="--darkreader-inline-fill: #7f66e9;"/><rect x="91.11" y="60.74" width="30.37" height="30.37" fill="#ffa1b7" data-darkreader-inline-fill="" style="--darkreader-inline-fill: #ff8aa6;"/><path d="M 91.11 91.11 A 30.37 30.37 0 0 0 121.48 60.74 L 91.11 60.74L91.11 91.11" fill="#c4b9f5" data-darkreader-inline-fill="" style="--darkreader-inline-fill: #b0a1f2;"/><rect x="60.74" y="91.11" width="30.37" height="30.37" fill="#84eded" data-darkreader-inline-fill="" style="--darkreader-inline-fill: #7cecec;"/><path d="M 60.74 121.48 A 30.37 30.37 0 0 1  91.11 91.11 L 91.11 121.48L60.74 121.48" fill="#c3b7f5" data-darkreader-inline-fill="" style="--darkreader-inline-fill: #b0a0f2;"/><rect x="91.11" y="91.11" width="30.37" height="30.37" fill="#4826e0" data-darkreader-inline-fill="" style="--darkreader-inline-fill: #593ae3;"/><path d="M 91.11 91.11 A 30.37 30.37 0 0 1 121.48 121.48 L 91.11 121.48L91.11 91.11" fill="#68e9e9" data-darkreader-inline-fill="" style="--darkreader-inline-fill: #69e9e9;"/><rect x="121.4857142857143" y="60.74285714285715" width="60.74285714285715" height="60.74285714285715" fill="#ffffff" data-darkreader-inline-fill="" style="--darkreader-inline-fill: #181a1b;"/><rect x="121.49" y="60.74" width="30.37" height="30.37" fill="#52e6e6" data-darkreader-inline-fill="" style="--darkreader-inline-fill: #59e7e7;"/><path d="M 121.49 91.11 A 30.37 30.37 0 0 1  151.85999999999999 60.74 L 151.85999999999999 91.11L121.49 91.11" fill="#ffeef2" data-darkreader-inline-fill="" style="--darkreader-inline-fill: #ffc0cf;"/><rect x="151.86" y="60.74" width="30.37" height="30.37" fill="#49e5e5" data-darkreader-inline-fill="" style="--darkreader-inline-fill: #53e6e6;"/><path d="M 151.86 60.74 A 30.37 30.37 0 0 1 182.23000000000002 91.11 L 151.86 91.11L151.86 60.74" fill="#b7c3f6" data-darkreader-inline-fill="" style="--darkreader-inline-fill: #9fc4f3;"/><rect x="121.49" y="91.11" width="30.37" height="30.37" fill="#6d86ec" data-darkreader-inline-fill="" style="--darkreader-inline-fill: #6ca4ec;"/><path d="M 121.49 91.11 A 30.37 30.37 0 0 0 151.85999999999999 121.48 L 151.85999999999999 91.11L121.49 91.11" fill="#c8bdf6" data-darkreader-inline-fill="" style="--darkreader-inline-fill: #b3a4f3;"/><rect x="151.86" y="91.11" width="30.37" height="30.37" fill="#e0fafa" data-darkreader-inline-fill="" style="--darkreader-inline-fill: #bdf4f4;"/><path d="M 151.86 121.48 A 30.37 30.37 0 0 0 182.23000000000002 91.11 L 151.86 91.11L151.86 121.48" fill="#1e44e2" data-darkreader-inline-fill="" style="--darkreader-inline-fill: #3482e5;"/><rect x="182.22857142857146" y="60.74285714285715" width="60.74285714285715" height="60.74285714285715" fill="#ffffff" data-darkreader-inline-fill="" style="--darkreader-inline-fill: #181a1b;"/><rect x="182.23" y="60.74" width="30.37" height="30.37" fill="#fff6f8" data-darkreader-inline-fill="" style="--darkreader-inline-fill: #ffc6d2;"/><path d="M 182.23 91.11 A 30.37 30.37 0 0 1 212.6 60.74 L 212.6 68.3325 A 22.7775 22.7775 0 0 0 189.8225 91.11" fill="#21dfdf" data-darkreader-inline-fill="" style="--darkreader-inline-fill: #37e2e2;"/><rect x="212.6" y="60.74" width="30.37" height="30.37" fill="#6f87ec" data-darkreader-inline-fill="" style="--darkreader-inline-fill: #6da4ec;"/><path d="M 212.6 60.74 A 30.37 30.37 0 0 1 242.97 91.11 L 235.3775 91.11 A 22.7775 22.7775 0 0 0 212.6 68.3325" fill="#2449e3" data-darkreader-inline-fill="" style="--darkreader-inline-fill: #3884e6;"/><rect x="182.23" y="91.11" width="30.37" height="30.37" fill="#ffaabe" data-darkreader-inline-fill="" style="--darkreader-inline-fill: #ff90ab;"/><path d="M 182.23 91.11 A 30.37 30.37 0 0 0 212.6 121.48 L 212.6 113.8875 A 22.7775 22.7775 0 0 1 189.8225 91.11" fill="#b7a9f3" data-darkreader-inline-fill="" style="--darkreader-inline-fill: #a796f0;"/><rect x="212.6" y="91.11" width="30.37" height="30.37" fill="#6649e5" data-darkreader-inline-fill="" style="--darkreader-inline-fill: #6e53e6;"/><path d="M 212.6 121.48 A 30.37 30.37 0 0 0 242.97 91.11 L 235.3775 91.11 A 22.7775 22.7775 0 0 1 212.6 113.8875" fill="#9cadf2" data-darkreader-inline-fill="" style="--darkreader-inline-fill: #8db8f0;"/><rect x="242.9714285714286" y="60.74285714285715" width="60.74285714285715" height="60.74285714285715" fill="#ffffff" data-darkreader-inline-fill="" style="--darkreader-inline-fill: #181a1b;"/><rect x="242.97" y="60.74" width="30.37" height="30.37" fill="#b5c1f5" data-darkreader-inline-fill="" style="--darkreader-inline-fill: #9ec3f2;"/><path d="M 242.97 91.11 A 30.37 30.37 0 0 0 273.34 60.74 L 242.97 60.74L242.97 91.11" fill="#b1bef5" data-darkreader-inline-fill="" style="--darkreader-inline-fill: #9bc1f2;"/><rect x="273.34" y="60.74" width="30.37" height="30.37" fill="#e2fbfb" data-darkreader-inline-fill="" style="--darkreader-inline-fill: #bef6f6;"/><path d="M 273.34 60.74 A 30.37 30.37 0 0 0 303.71 91.11 L 303.71 60.74L273.34 60.74" fill="#ffc7d5" data-darkreader-inline-fill="" style="--darkreader-inline-fill: #ffa5bb;"/><rect x="242.97" y="91.11" width="30.37" height="30.37" fill="#6c84ec" data-darkreader-inline-fill="" style="--darkreader-inline-fill: #6ba3ec;"/><path d="M 242.97 91.11 A 30.37 30.37 0 0 1 273.34 121.48 L 242.97 121.48L242.97 91.11" fill="#8e78ec" data-darkreader-inline-fill="" style="--darkreader-inline-fill: #8a74eb;"/><rect x="273.34" y="91.11" width="30.37" height="30.37" fill="#ffd3dd" data-darkreader-inline-fill="" style="--darkreader-inline-fill: #ffadc0;"/><path d="M 273.34 121.48 A 30.37 30.37 0 0 1  303.71 91.11 L 303.71 121.48L273.34 121.48" fill="#d0f8f8" data-darkreader-inline-fill="" style="--darkreader-inline-fill: #b2f3f3;"/><rect x="0" y="121.4857142857143" width="60.74285714285715" height="60.74285714285715" fill="#ffffff" data-darkreader-inline-fill="" style="--darkreader-inline-fill: #181a1b;"/><rect x="0" y="121.49" width="30.37" height="30.37" fill="#c8bef6" data-darkreader-inline-fill="" style="--darkreader-inline-fill: #b3a5f2;"/><polygon points="30.37,121.49 30.37,151.85999999999999 0,151.85999999999999" fill="#ffccd8" data-darkreader-inline-fill="" style="--darkreader-inline-fill: #ffa8bd;"/><rect x="30.37" y="121.49" width="30.37" height="30.37" fill="#fffafb" data-darkreader-inline-fill="" style="--darkreader-inline-fill: #ffc8d3;"/><polygon points="30.37,121.49 60.74,151.85999999999999 30.37,151.85999999999999" fill="#d8d1f8" data-darkreader-inline-fill="" style="--darkreader-inline-fill: #beb3f3;"/><rect x="0" y="151.86" width="30.37" height="30.37" fill="#8398ef" data-darkreader-inline-fill="" style="--darkreader-inline-fill: #7badee;"/><polygon points="0,151.86 30.37,151.86 0,182.23000000000002" fill="#ff819f" data-darkreader-inline-fill="" style="--darkreader-inline-fill: #ff7495;"/><rect x="30.37" y="151.86" width="30.37" height="30.37" fill="#b7f5f5" data-darkreader-inline-fill="" style="--darkreader-inline-fill: #a0f2f2;"/><polygon points="30.37,151.86 60.74,151.86 60.74,182.23000000000002" fill="#917cec" data-darkreader-inline-fill="" style="--darkreader-inline-fill: #8d77eb;"/><rect x="60.74285714285715" y="121.4857142857143" width="60.74285714285715" height="60.74285714285715" fill="#ffffff" data-darkreader-inline-fill="" style="--darkreader-inline-fill: #181a1b;"/><rect x="60.74" y="121.49" width="30.37" height="30.37" fill="#ffecf0" data-darkreader-inline-fill="" style="--darkreader-inline-fill: #ffbfcc;"/><path d="M 60.74 151.85999999999999 A 30.37 30.37 0 0 1  91.11 121.49 L 91.11 151.85999999999999L60.74 151.85999999999999" fill="#775ee8" data-darkreader-inline-fill="" style="--darkreader-inline-fill: #7a62e9;"/><rect x="91.11" y="121.49" width="30.37" height="30.37" fill="#4826e0" data-darkreader-inline-fill="" style="--darkreader-inline-fill: #593ae3;"/><path d="M 91.11 121.49 A 30.37 30.37 0 0 1 121.48 151.85999999999999 L 91.11 151.85999999999999L91.11 121.49" fill="#90efef" data-darkreader-inline-fill="" style="--darkreader-inline-fill: #85eded;"/><rect x="60.74" y="151.86" width="30.37" height="30.37" fill="#ffd9e2" data-darkreader-inline-fill="" style="--darkreader-inline-fill: #ffb1c4;"/><path d="M 60.74 151.86 A 30.37 30.37 0 0 0 91.11 182.23000000000002 L 91.11 151.86L60.74 151.86" fill="#d8defa" data-darkreader-inline-fill="" style="--darkreader-inline-fill: #b6d2f6;"/><rect x="91.11" y="151.86" width="30.37" height="30.37" fill="#e7fcfc" data-darkreader-inline-fill="" style="--darkreader-inline-fill: #c1f7f7;"/><path d="M 91.11 182.23000000000002 A 30.37 30.37 0 0 0 121.48 151.86 L 91.11 151.86L91.11 182.23000000000002" fill="#ff416f" data-darkreader-inline-fill="" style="--darkreader-inline-fill: #ff4774;"/><rect x="121.49" y="121.49" width="60.74" height="60.74" fill="#7258e7" data-darkreader-inline-fill="" style="--darkreader-inline-fill: #2b1591;"/><path d="M 121.49 182.23 A 60.74 60.74 0 0 0 182.23 121.49 L 121.49 121.49L121.49 182.23" fill="#a2b1f3" data-darkreader-inline-fill="" style="--darkreader-inline-fill: #0d1d65;"/><rect x="182.22857142857146" y="121.4857142857143" width="60.74285714285715" height="60.74285714285715" fill="#ffffff" data-darkreader-inline-fill="" style="--darkreader-inline-fill: #181a1b;"/><rect x="182.23" y="121.49" width="30.37" height="30.37" fill="#ffe1e8" data-darkreader-inline-fill="" style="--darkreader-inline-fill: #ffb7c8;"/><polygon points="212.6,121.49 212.6,151.85999999999999 182.23,151.85999999999999" fill="#59e7e7" data-darkreader-inline-fill="" style="--darkreader-inline-fill: #5ee8e8;"/><rect x="212.6" y="121.49" width="30.37" height="30.37" fill="#ff7a9a" data-darkreader-inline-fill="" style="--darkreader-inline-fill: #ff6f92;"/><polygon points="212.6,121.49 242.97,121.49 212.6,151.85999999999999" fill="#7decec" data-darkreader-inline-fill="" style="--darkreader-inline-fill: #78ebeb;"/><rect x="182.23" y="151.86" width="30.37" height="30.37" fill="#b5c1f5" data-darkreader-inline-fill="" style="--darkreader-inline-fill: #9ec3f2;"/><polygon points="182.23,151.86 212.6,151.86 212.6,182.23000000000002" fill="#b8abf3" data-darkreader-inline-fill="" style="--darkreader-inline-fill: #a898f0;"/><rect x="212.6" y="151.86" width="30.37" height="30.37" fill="#ffe3ea" data-darkreader-inline-fill="" style="--darkreader-inline-fill: #ffb8ca;"/><polygon points="212.6,151.86 242.97,182.23000000000002 212.6,182.23000000000002" fill="#ffd6e0" data-darkreader-inline-fill="" style="--darkreader-inline-fill: #ffafc3;"/><rect x="242.97" y="121.49" width="60.74" height="60.74" fill="#3b5ce5" data-darkreader-inline-fill="" style="--darkreader-inline-fill: #1631a3;"/><polygon points="242.97,121.49 303.71,182.23 242.97,182.23" fill="#765ce8" data-darkreader-inline-fill="" style="--darkreader-inline-fill: #2b148e;"/><rect x="0" y="182.23" width="60.74" height="60.74" fill="#cdd6f9" data-darkreader-inline-fill="" style="--darkreader-inline-fill: #282b2d;"/><rect x="0" y="182.23" width="60.74" height="60.74" fill="#5131e1" data-darkreader-inline-fill="" style="--darkreader-inline-fill: #3318a8;"/><rect x="60.74285714285715" y="182.22857142857146" width="60.74285714285715" height="60.74285714285715" fill="#ffffff" data-darkreader-inline-fill="" style="--darkreader-inline-fill: #181a1b;"/><rect x="60.74" y="182.23" width="30.37" height="30.37" fill="#ff3b6a" data-darkreader-inline-fill="" style="--darkreader-inline-fill: #ff4370;"/><path d="M 60.74 212.6 A 30.37 30.37 0 0 0 91.11 182.23 L 60.74 182.23L60.74 212.6" fill="#dcd5f9" data-darkreader-inline-fill="" style="--darkreader-inline-fill: #c1b5f4;"/><rect x="91.11" y="182.23" width="30.37" height="30.37" fill="#cef8f8" data-darkreader-inline-fill="" style="--darkreader-inline-fill: #b0f4f4;"/><path d="M 91.11 182.23 A 30.37 30.37 0 0 0 121.48 212.6 L 121.48 182.23L91.11 182.23" fill="#fbfafe" data-darkreader-inline-fill="" style="--darkreader-inline-fill: #dad1f6;"/><rect x="60.74" y="212.6" width="30.37" height="30.37" fill="#e0fbfb" data-darkreader-inline-fill="" style="--darkreader-inline-fill: #bcf6f6;"/><path d="M 60.74 212.6 A 30.37 30.37 0 0 1 91.11 242.97 L 60.74 242.97L60.74 212.6" fill="#ffeef2" data-darkreader-inline-fill="" style="--darkreader-inline-fill: #ffc0cf;"/><rect x="91.11" y="212.6" width="30.37" height="30.37" fill="#a8b6f4" data-darkreader-inline-fill="" style="--darkreader-inline-fill: #95bdf2;"/><path d="M 91.11 242.97 A 30.37 30.37 0 0 1  121.48 212.6 L 121.48 242.97L91.11 242.97" fill="#ff688c" data-darkreader-inline-fill="" style="--darkreader-inline-fill: #ff6288;"/><rect x="121.49" y="182.23" width="60.74" height="60.74" fill="#d4dbf9" data-darkreader-inline-fill="" style="--darkreader-inline-fill: #26292b;"/><rect x="121.49" y="182.23" width="60.74" height="60.74" fill="#adbbf4" data-darkreader-inline-fill="" style="--darkreader-inline-fill: #323639;"/><rect x="182.23" y="182.23" width="60.74" height="60.74" fill="#8a9ef0" data-darkreader-inline-fill="" style="--darkreader-inline-fill: #0f2373;"/><path d="M 182.23 182.23 A 60.74 60.74 0 0 1  242.97 242.97 L 182.23 182.23 A 60.74 60.74 0 0 0 242.97 242.97" fill="#7f94ee" data-darkreader-inline-fill="" style="--darkreader-inline-fill: #10247a;"/><rect x="242.97" y="182.23" width="60.74" height="60.74" fill="#d3caf7" data-darkreader-inline-fill="" style="--darkreader-inline-fill: #292d2e;"/><path d="M 242.97 242.97 A 60.74 60.74 0 0 1  303.71 182.23 L 303.71 242.97L242.97 242.97" fill="#5773e9" data-darkreader-inline-fill="" style="--darkreader-inline-fill: #132b92;"/><rect x="0" y="242.97" width="60.74" height="60.74" fill="#c1b6f5" data-darkreader-inline-fill="" style="--darkreader-inline-fill: #2f3335;"/><polygon points="0,242.97 60.74,242.97 0,303.71" fill="#53e6e6" data-darkreader-inline-fill="" style="--darkreader-inline-fill: #159494;"/><rect x="60.74" y="242.97" width="60.74" height="60.74" fill="#6e53e6" data-darkreader-inline-fill="" style="--darkreader-inline-fill: #2d1594;"/><polygon points="60.74,242.97 121.48,242.97 121.48,303.71" fill="#8771eb" data-darkreader-inline-fill="" style="--darkreader-inline-fill: #261282;"/><rect x="121.49" y="242.97" width="60.74" height="60.74" fill="#674ae5" data-darkreader-inline-fill="" style="--darkreader-inline-fill: #2f1699;"/><rect x="121.49" y="242.97" width="60.74" height="60.74" fill="#6882eb" data-darkreader-inline-fill="" style="--darkreader-inline-fill: #122988;"/><rect x="182.23" y="242.97" width="60.74" height="60.74" fill="#ff7092" data-darkreader-inline-fill="" style="--darkreader-inline-fill: #890021;"/><path d="M 182.23 242.97 A 60.74 60.74 0 0 1 242.97 303.71 L 182.23 303.71L182.23 242.97" fill="#ffdae3" data-darkreader-inline-fill="" style="--darkreader-inline-fill: #490012;"/><rect x="242.9714285714286" y="242.9714285714286" width="60.74285714285715" height="60.74285714285715" fill="#ffffff" data-darkreader-inline-fill="" style="--darkreader-inline-fill: #181a1b;"/><rect x="242.97" y="242.97" width="30.37" height="30.37" fill="#6aeaea" data-darkreader-inline-fill="" style="--darkreader-inline-fill: #6aeaea;"/><polygon points="273.34,242.97 273.34,273.34 242.97,273.34" fill="#8f7bec" data-darkreader-inline-fill="" style="--darkreader-inline-fill: #8b76eb;"/><rect x="273.34" y="242.97" width="30.37" height="30.37" fill="#ffb4c6" data-darkreader-inline-fill="" style="--darkreader-inline-fill: #ff98b0;"/><polygon points="273.34,242.97 303.71,273.34 273.34,273.34" fill="#ff88a4" data-darkreader-inline-fill="" style="--darkreader-inline-fill: #ff7998;"/><rect x="242.97" y="273.34" width="30.37" height="30.37" fill="#6781eb" data-darkreader-inline-fill="" style="--darkreader-inline-fill: #68a1eb;"/><polygon points="242.97,273.34 273.34,273.34 273.34,303.71" fill="#a796f0" data-darkreader-inline-fill="" style="--darkreader-inline-fill: #9c89ee;"/><rect x="273.34" y="273.34" width="30.37" height="30.37" fill="#ff9cb4" data-darkreader-inline-fill="" style="--darkreader-inline-fill: #ff87a4;"/><polygon points="273.34,273.34 303.71,273.34 273.34,303.71" fill="#8b76eb" data-darkreader-inline-fill="" style="--darkreader-inline-fill: #8873eb;"/><rect x="0" y="303.71" width="60.74" height="60.74" fill="#ff7f9d" data-darkreader-inline-fill="" style="--darkreader-inline-fill: #80001e;"/><rect x="0" y="303.71" width="60.74" height="60.74" fill="#d3f9f9" data-darkreader-inline-fill="" style="--darkreader-inline-fill: #0a4747;"/><rect x="60.74" y="303.71" width="60.74" height="60.74" fill="#6a4ee6" data-darkreader-inline-fill="" style="--darkreader-inline-fill: #2d1597;"/><rect x="60.74" y="303.71" width="60.74" height="60.74" fill="#2247e2" data-darkreader-inline-fill="" style="--darkreader-inline-fill: #1735b2;"/><rect x="121.4857142857143" y="303.7142857142857" width="60.74285714285715" height="60.74285714285715" fill="#ffffff" data-darkreader-inline-fill="" style="--darkreader-inline-fill: #181a1b;"/><rect x="121.49" y="303.71" width="30.37" height="30.37" fill="#ffa3b9" data-darkreader-inline-fill="" style="--darkreader-inline-fill: #ff8ca7;"/><path d="M 121.49 303.71 A 30.37 30.37 0 0 0 151.85999999999999 334.08 L 151.85999999999999 303.71L121.49 303.71" fill="#627deb" data-darkreader-inline-fill="" style="--darkreader-inline-fill: #649feb;"/><rect x="151.86" y="303.71" width="30.37" height="30.37" fill="#ff94ad" data-darkreader-inline-fill="" style="--darkreader-inline-fill: #ff819f;"/><path d="M 151.86 334.08 A 30.37 30.37 0 0 0 182.23000000000002 303.71 L 151.86 303.71L151.86 334.08" fill="#a493f0" data-darkreader-inline-fill="" style="--darkreader-inline-fill: #9a87ee;"/><rect x="121.49" y="334.09" width="30.37" height="30.37" fill="#8e78ec" data-darkreader-inline-fill="" style="--darkreader-inline-fill: #8a74eb;"/><path d="M 121.49 364.46 A 30.37 30.37 0 0 1  151.85999999999999 334.09 L 151.85999999999999 364.46L121.49 364.46" fill="#d4dbf9" data-darkreader-inline-fill="" style="--darkreader-inline-fill: #b4d0f5;"/><rect x="151.86" y="334.09" width="30.37" height="30.37" fill="#c4f7f7" data-darkreader-inline-fill="" style="--darkreader-inline-fill: #a9f3f3;"/><path d="M 151.86 334.09 A 30.37 30.37 0 0 1 182.23000000000002 364.46 L 151.86 364.46L151.86 334.09" fill="#c9f7f7" data-darkreader-inline-fill="" style="--darkreader-inline-fill: #adf3f3;"/><rect x="182.23" y="303.71" width="60.74" height="60.74" fill="#b1f4f4" data-darkreader-inline-fill="" style="--darkreader-inline-fill: #0d5b5b;"/><path d="M 182.23 364.45 A 60.74 60.74 0 0 1  242.97 303.71 L 182.23 364.45 A 60.74 60.74 0 0 0 242.97 303.71" fill="#b7f5f5" data-darkreader-inline-fill="" style="--darkreader-inline-fill: #0c5858;"/><rect x="242.97" y="303.71" width="60.74" height="60.74" fill="#e2fbfb" data-darkreader-inline-fill="" style="--darkreader-inline-fill: #093e3e;"/><polygon points="242.97,303.71 303.71,303.71 303.71,364.45" fill="#788fed" data-darkreader-inline-fill="" style="--darkreader-inline-fill: #11267e;"/><rect x="0" y="364.46" width="60.74" height="60.74" fill="#bec9f7" data-darkreader-inline-fill="" style="--darkreader-inline-fill: #2d3032;"/><polygon points="0,364.46 60.74,425.2 0,425.2" fill="#80eded" data-darkreader-inline-fill="" style="--darkreader-inline-fill: #117979;"/><rect x="60.74" y="364.46" width="60.74" height="60.74" fill="#bbc7f6" data-darkreader-inline-fill="" style="--darkreader-inline-fill: #2e3233;"/><rect x="60.74" y="364.46" width="60.74" height="60.74" fill="#ff6186" data-darkreader-inline-fill="" style="--darkreader-inline-fill: #920022;"/><rect x="121.49" y="364.46" width="60.74" height="60.74" fill="#ff6288" data-darkreader-inline-fill="" style="--darkreader-inline-fill: #910023;"/><path d="M 121.49 364.46 A 60.74 60.74 0 0 0 182.23 425.2 L 182.23 364.46L121.49 364.46" fill="#cfd7f9" data-darkreader-inline-fill="" style="--darkreader-inline-fill: #272b2c;"/><rect x="182.22857142857146" y="364.4571428571429" width="60.74285714285715" height="60.74285714285715" fill="#ffffff" data-darkreader-inline-fill="" style="--darkreader-inline-fill: #181a1b;"/><rect x="182.23" y="364.46" width="30.37" height="30.37" fill="#58e7e7" data-darkreader-inline-fill="" style="--darkreader-inline-fill: #5ee8e8;"/><circle cx="197.415" cy="379.645" r="15.185" fill="#8872eb" data-darkreader-inline-fill="" style="--darkreader-inline-fill: #8670eb;"/><rect x="212.6" y="364.46" width="30.37" height="30.37" fill="#dbfafa" data-darkreader-inline-fill="" style="--darkreader-inline-fill: #b9f5f5;"/><rect x="212.6" y="364.46" width="30.37" height="30.37" fill="#ffb6c7" data-darkreader-inline-fill="" style="--darkreader-inline-fill: #ff99b1;"/><rect x="182.23" y="394.83" width="30.37" height="30.37" fill="#a0b0f3" data-darkreader-inline-fill="" style="--darkreader-inline-fill: #8fbaf1;"/><circle cx="197.415" cy="410.015" r="15.185" fill="#ff668a" data-darkreader-inline-fill="" style="--darkreader-inline-fill: #ff6186;"/><rect x="212.6" y="394.83" width="30.37" height="30.37" fill="#b6f4f4" data-darkreader-inline-fill="" style="--darkreader-inline-fill: #a0f1f1;"/><rect x="212.6" y="394.83" width="30.37" height="30.37" fill="#fffcfd" data-darkreader-inline-fill="" style="--darkreader-inline-fill: #ffcadc;"/><rect x="242.97" y="364.46" width="60.74" height="60.74" fill="#ffa2b8" data-darkreader-inline-fill="" style="--darkreader-inline-fill: #6b0019;"/><rect x="242.97" y="364.46" width="60.74" height="60.74" fill="#ff567e" data-darkreader-inline-fill="" style="--darkreader-inline-fill: #980024;"/></g></svg>